<?xml version="1.0" standalone="no"?>
<!DOCTYPE svg PUBLIC "-//W3C//DTD SVG 20010904//EN"
 "http://www.w3.org/TR/2001/REC-SVG-20010904/DTD/svg10.dtd">
<svg version="1.0" xmlns="http://www.w3.org/2000/svg"
 width="740.000000pt" height="485.000000pt" viewBox="0 0 740.000000 485.000000"
 preserveAspectRatio="xMidYMid meet">

<g transform="translate(0.000000,485.000000) scale(0.100000,-0.100000)"
fill="#000000" stroke="none">
<path d="M0 4045 l0 -805 3700 0 3700 0 0 805 0 805 -3700 0 -3700 0 0 -805z"/>
<path d="M0 805 l0 -805 3700 0 3700 0 0 805 0 805 -3700 0 -3700 0 0 -805z
m618 788 c-53 -2 -143 -2 -200 0 -57 1 -13 3 97 3 110 0 156 -2 103 -3z"/>
</g>
</svg>
